<svg preserveAspectRatio="none" overflow="visible" style="display: block;" width="19" height="19" viewBox="0 0 19 19" fill="none" xmlns="http://www.w3.org/2000/svg">
<path id="Vector" d="M9.49998 0C7.62106 0 5.78434 0.557164 4.22208 1.60103C2.65981 2.6449 1.44218 4.1286 0.723147 5.86449C0.00411622 7.60038 -0.184015 9.51051 0.182544 11.3533C0.549102 13.1961 1.45389 14.8889 2.78248 16.2175C4.11108 17.5461 5.80381 18.4509 7.64663 18.8174C9.48944 19.184 11.3996 18.9958 13.1355 18.2768C14.8714 17.5578 16.355 16.3401 17.3989 14.7779C18.4428 13.2156 19 11.3789 19 9.49997C18.997 6.98134 17.9951 4.56671 16.2142 2.78576C14.4332 1.00481 12.0186 0.00297131 9.49998 0ZM13.1635 11.9432C13.246 12.0229 13.3118 12.1182 13.3571 12.2235C13.4023 12.3289 13.4261 12.4422 13.4271 12.5569C13.4281 12.6716 13.4063 12.7853 13.3629 12.8914C13.3194 12.9976 13.2553 13.094 13.1742 13.1751C13.0931 13.2562 12.9967 13.3203 12.8906 13.3637C12.7844 13.4071 12.6707 13.429 12.556 13.428C12.4414 13.427 12.328 13.4032 12.2227 13.3579C12.1173 13.3127 12.022 13.2469 11.9423 13.1644L9.49998 10.7212L7.05762 13.1644C6.89474 13.3217 6.67658 13.4087 6.45014 13.4068C6.2237 13.4048 6.00709 13.314 5.84696 13.1539C5.68684 12.9937 5.59601 12.7771 5.59404 12.5507C5.59208 12.3242 5.67913 12.1061 5.83644 11.9432L8.2788 9.49997L5.83644 7.05675C5.75396 6.97709 5.68816 6.88179 5.6429 6.77642C5.59764 6.67105 5.57381 6.55773 5.57282 6.44306C5.57182 6.32838 5.59367 6.21466 5.6371 6.10852C5.68052 6.00239 5.74465 5.90596 5.82574 5.82487C5.90683 5.74378 6.00325 5.67965 6.10939 5.63623C6.21553 5.59281 6.32925 5.57095 6.44392 5.57195C6.5586 5.57295 6.67192 5.59677 6.77729 5.64203C6.88266 5.6873 6.97795 5.75309 7.05762 5.83558L9.49998 8.2788L11.9423 5.83558C12.022 5.75309 12.1173 5.6873 12.2227 5.64203C12.328 5.59677 12.4414 5.57295 12.556 5.57195C12.6707 5.57095 12.7844 5.59281 12.8906 5.63623C12.9967 5.67965 13.0931 5.74378 13.1742 5.82487C13.2553 5.90596 13.3194 6.00239 13.3629 6.10852C13.4063 6.21466 13.4281 6.32838 13.4271 6.44306C13.4261 6.55773 13.4023 6.67105 13.3571 6.77642C13.3118 6.88179 13.246 6.97709 13.1635 7.05675L10.7212 9.49997L13.1635 11.9432Z" fill="white"/>
</svg>
